General

Format                           : MPEG-4
Format profile                   : Base Media
Codec ID                         : isom
File size                        : 55.4 MiB
Duration                         : 4mn 29s
Overall bit rate                 : 1 725 Kbps
Encoded date                     : UTC 2012-05-28 16:54:00
Tagged date                      : UTC 2012-05-28 16:54:00

Video
ID                               : 1
Format                           : AVC
Format/Info                      : Advanced Video Codec
Format profile                   : High@L3.0
Format settings, CABAC           : Yes
Format settings, ReFrames        : 2 frames
Codec ID                         : avc1
Codec ID/Info                    : Advanced Video Coding
Duration                         : 4mn 29s
Bit rate mode                    : Variable
Bit rate                         : 1 628 Kbps
Maximum bit rate                 : 16.3 Mbps
Width                            : 720 pixels
Height                           : 480 pixels
Display aspect ratio             : 16:9
Original display aspect ratio    : 16:9
Frame rate mode                  : Constant
Frame rate                       : 29.970 fps
Standard                         : NTSC
Color space                      : YUV
Chroma subsampling               : 4:2:0
Bit depth                        : 8 bits
Scan type                        : Progressive
Bits/(Pixel*Frame)               : 0.157
Stream size                      : 53.0 MiB (96%)


Audio
ID                               : 2
Format                           : AAC
Format/Info                      : Advanced Audio Codec
Format profile                   : LC
Codec ID                         : 40
Duration                         : 4mn 29s
Bit rate mode                    : Variable
Bit rate                         : 67.7 Kbps
Maximum bit rate                 : 84.1 Kbps
Channel(s)                       : 2 channels
Channel positions                : Front: L R
Sampling rate                    : 44.1 KHz
Compression mode                 : Lossy
Stream size                      : 2.17 MiB (4%)